<svg width="48" height="53" viewBox="0 0 48 53" fill="none" xmlns="http://www.w3.org/2000/svg">
<g clip-path="url(#clip0_178_293)">
<path d="M1.21961 25.8594C1.06508 25.8647 0.911014 25.8394 0.76623 25.7851C0.621447 25.7308 0.488779 25.6486 0.375807 25.543C0.261273 25.4338 0.169495 25.303 0.105771 25.1582C0.0420467 25.0134 0.00763828 24.8574 0.00453173 24.6992C-0.000530289 24.5437 0.0251736 24.3887 0.0801675 24.2432C0.135161 24.0976 0.218362 23.9644 0.324992 23.8511C0.431622 23.7378 0.559581 23.6467 0.701522 23.583C0.843463 23.5193 0.99659 23.4842 1.15211 23.4799L4.80158 23.3533C5.11397 23.3456 5.41691 23.4608 5.64539 23.6739C5.81519 23.8345 5.93376 24.0417 5.98619 24.2694C6.03862 24.4971 6.02258 24.7353 5.94008 24.9539C5.85758 25.1726 5.71231 25.3619 5.52251 25.4983C5.3327 25.6346 5.10684 25.7118 4.8733 25.7202L1.21961 25.8425V25.8594ZM28.732 17.6323C29.0393 17.6274 29.3451 17.6774 29.6348 17.7799C30.2283 17.9879 30.7545 18.3523 31.1579 18.8347C31.6 19.3472 31.8778 19.9807 31.9553 20.6531C31.9906 20.9912 31.9735 21.3328 31.9047 21.6657C32.2088 21.9346 32.4692 22.2492 32.6768 22.5981C32.9704 23.0986 33.1166 23.6719 33.0987 24.2519C33.0772 24.8634 32.8664 25.4531 32.4953 25.9396C32.2146 26.3116 31.8721 26.6326 31.4828 26.8888C31.5292 27.7123 31.3023 28.5281 30.8373 29.2093C30.4097 29.8822 29.7332 30.3585 28.9556 30.5341C28.748 31.2528 28.2753 31.8659 27.6332 32.2496C26.9911 32.6333 26.2272 32.7591 25.496 32.6014C25.1691 32.5091 24.8655 32.3485 24.6052 32.1304C24.3448 31.9122 24.1336 31.6414 23.9855 31.3357C23.8095 31.6655 23.5641 31.9531 23.2662 32.1789C22.9683 32.4047 22.625 32.5633 22.26 32.6436C21.8793 32.7151 21.4877 32.7035 21.1119 32.6096C20.7362 32.5156 20.3852 32.3416 20.0829 32.0994C19.5768 31.7136 19.2276 31.1575 19.0999 30.5341C18.8398 30.5232 18.5826 30.4749 18.3363 30.3906C17.7574 30.1853 17.2424 29.8318 16.8427 29.3654C16.4122 28.8736 16.1311 28.2691 16.0327 27.623C15.9804 27.2537 15.9932 26.8782 16.0706 26.5134C15.7967 26.2671 15.5595 25.983 15.366 25.6695C15.0507 25.1632 14.884 24.5784 14.8851 23.9819C14.8968 23.3428 15.111 22.7238 15.4968 22.2142C15.7645 21.8568 16.0879 21.5448 16.4546 21.2902C16.4546 21.1763 16.4546 21.0581 16.4546 20.9442C16.4835 20.1304 16.7801 19.3489 17.2984 18.7208C17.7453 18.1498 18.3892 17.7662 19.1041 17.6449C19.1267 17.5358 19.1577 17.4286 19.1969 17.3243C19.4273 16.7298 19.8548 16.2324 20.4078 15.9151C20.9639 15.5818 21.6236 15.466 22.26 15.5903C22.6052 15.6646 22.9311 15.8104 23.2167 16.0182C23.5022 16.226 23.7411 16.4912 23.918 16.7969C24.0966 16.4918 24.3366 16.227 24.6227 16.0193C24.9088 15.8116 25.2349 15.6655 25.5803 15.5903C26.1544 15.48 26.7488 15.5662 27.268 15.835C27.7804 16.0927 28.2037 16.4984 28.483 16.9994C28.589 17.1962 28.6685 17.4062 28.7193 17.6238L28.732 17.6323ZM24.5847 18.0078V29.6143C24.6383 29.6867 24.6744 29.7704 24.6901 29.8591C24.8547 30.8716 25.2934 31.361 25.7913 31.496C26.0333 31.5483 26.2839 31.5467 26.5253 31.4913C26.7666 31.4359 26.9928 31.328 27.1878 31.1754C27.3896 31.047 27.5586 30.8735 27.6817 30.6684C27.8047 30.4634 27.8783 30.2325 27.8966 29.9941C27.8966 29.4793 27.5253 28.8929 26.5128 28.3782C26.4414 28.3483 26.3771 28.304 26.3237 28.2481C26.2703 28.1921 26.229 28.1257 26.2025 28.0531C26.176 27.9805 26.1647 27.9031 26.1695 27.826C26.1743 27.7488 26.195 27.6734 26.2303 27.6046C26.2655 27.5358 26.3147 27.475 26.3745 27.4261C26.4344 27.3772 26.5038 27.3411 26.5782 27.3203C26.6527 27.2994 26.7306 27.2942 26.8072 27.3049C26.8838 27.3156 26.9574 27.342 27.0233 27.3825C28.1455 27.952 28.7109 28.6482 28.9303 29.3696C29.3409 29.2232 29.6922 28.946 29.9302 28.5807C30.3013 28.0422 30.4606 27.3856 30.3774 26.737C30.3524 26.6212 30.3646 26.5005 30.4123 26.3921C30.4601 26.2838 30.5409 26.1933 30.6432 26.1336C31.0248 25.9221 31.3593 25.635 31.6262 25.2898C31.862 24.9874 31.9963 24.6183 32.0102 24.2351C32.0153 23.8622 31.916 23.4953 31.7233 23.1761C31.5306 22.847 31.2738 22.5601 30.9681 22.3323C30.8611 22.2645 30.7798 22.1629 30.737 22.0437C30.6942 21.9245 30.6924 21.7945 30.7318 21.6741C30.8357 21.3794 30.8718 21.065 30.8373 20.7544C30.7775 20.3143 30.5914 19.901 30.3014 19.5646C30.0299 19.2382 29.6759 18.9905 29.2762 18.8474C29.0911 18.7811 28.8946 18.7525 28.6982 18.763C28.5906 19.1289 28.405 19.4672 28.154 19.7545C28.11 19.8191 28.0529 19.8737 27.9865 19.9148C27.92 19.9559 27.8456 19.9826 27.7682 19.9931C27.6907 20.0035 27.6119 19.9976 27.5369 19.9756C27.4619 19.9537 27.3924 19.9161 27.3328 19.8655C27.2733 19.8149 27.225 19.7523 27.1913 19.6818C27.1575 19.6114 27.1389 19.5345 27.1368 19.4564C27.1347 19.3783 27.149 19.3006 27.1789 19.2284C27.2087 19.1561 27.2535 19.091 27.3102 19.0372C27.5002 18.8434 27.623 18.5935 27.6602 18.3246C27.6974 18.0557 27.6472 17.7819 27.5169 17.5437C27.3502 17.2426 27.0956 16.9998 26.787 16.8475C26.4907 16.691 26.1503 16.639 25.8208 16.6999C25.3441 16.7969 24.8842 17.1935 24.5973 18.012L24.5847 18.0078ZM27.4452 21.8049C27.3334 21.7145 27.2606 21.5847 27.2418 21.4422C27.223 21.2997 27.2595 21.1554 27.3439 21.0391C27.4283 20.9228 27.5541 20.8433 27.6954 20.817C27.8367 20.7907 27.9827 20.8196 28.1033 20.8978C28.2215 20.9822 28.3269 21.0708 28.4282 21.1594C29.1426 21.7966 29.5826 22.6857 29.6559 23.6402C29.7303 24.5821 29.4638 25.5194 28.9049 26.2813C28.8248 26.391 28.732 26.5007 28.6265 26.6188C28.5269 26.7307 28.3869 26.7985 28.2374 26.8072C28.0879 26.8159 27.941 26.7648 27.8291 26.6652C27.7172 26.5657 27.6494 26.4257 27.6407 26.2762C27.632 26.1266 27.6831 25.9797 27.7827 25.8678C27.8529 25.7897 27.9191 25.708 27.981 25.6231C28.3818 25.0764 28.5747 24.4049 28.5252 23.7288C28.4776 23.0637 28.1754 22.4426 27.6814 21.9948C27.6081 21.9267 27.5306 21.8633 27.4494 21.8049H27.4452ZM23.4582 18.5942L23.4329 18.552C23.1628 17.4593 22.6355 16.9572 22.0912 16.8644C21.7245 16.799 21.3465 16.8695 21.028 17.0627C20.7071 17.1939 20.4355 17.4227 20.2517 17.7167C20.1655 17.9914 20.1671 18.2862 20.2563 18.5599C20.3456 18.8337 20.518 19.0728 20.7495 19.2439C20.8586 19.3452 20.923 19.4857 20.9286 19.6344C20.9341 19.7832 20.8803 19.928 20.7791 20.0371C20.7289 20.0911 20.6686 20.1348 20.6016 20.1655C20.5346 20.1962 20.4623 20.2134 20.3886 20.2162C20.2399 20.2217 20.095 20.1679 19.9859 20.0667C19.5951 19.7291 19.3034 19.2916 19.1421 18.8009C18.7509 18.9061 18.4053 19.1375 18.1591 19.4591C17.804 19.8972 17.6025 20.4397 17.5853 21.0033C17.5808 21.174 17.5907 21.3447 17.6148 21.5138C17.6288 21.6213 17.6116 21.7306 17.5652 21.8286C17.5188 21.9265 17.4452 22.0091 17.3532 22.0665C16.9832 22.2843 16.6582 22.5707 16.3955 22.9103C16.1501 23.2307 16.0128 23.6207 16.0031 24.0241C16.0047 24.4068 16.1144 24.7812 16.3196 25.1042C16.5039 25.3987 16.7431 25.6551 17.0241 25.8594C17.1245 25.9296 17.1993 26.0305 17.2373 26.147C17.2754 26.2634 17.2746 26.389 17.2351 26.5049C17.1273 26.8193 17.0941 27.1543 17.138 27.4837C17.2063 27.9187 17.3965 28.3254 17.6865 28.6566C17.9562 28.9707 18.3019 29.2104 18.6907 29.3528C18.8392 29.4025 18.994 29.4309 19.1505 29.4371C19.3699 28.7115 19.9943 27.9816 21.125 27.3951C21.1909 27.3547 21.2645 27.3282 21.3411 27.3175C21.4176 27.3068 21.4956 27.3121 21.5701 27.3329C21.6445 27.3538 21.7139 27.3898 21.7738 27.4388C21.8336 27.4877 21.8828 27.5485 21.918 27.6173C21.9533 27.6861 21.974 27.7614 21.9788 27.8386C21.9836 27.9158 21.9723 27.9931 21.9458 28.0658C21.9193 28.1384 21.878 28.2048 21.8246 28.2607C21.7712 28.3166 21.7069 28.3609 21.6355 28.3908C20.5723 28.9351 20.1715 29.5595 20.1715 30.108C20.1817 30.3244 20.2404 30.5358 20.3434 30.7264C20.4464 30.917 20.5909 31.082 20.7664 31.2091C20.9417 31.3513 21.1452 31.4546 21.3634 31.512C21.5816 31.5695 21.8096 31.5799 22.0321 31.5424C22.5764 31.4285 23.1038 30.9265 23.3738 29.8295C23.3905 29.7631 23.4191 29.7002 23.4582 29.6439V18.5942ZM19.2898 21.2817C19.3432 21.2302 19.4063 21.1897 19.4754 21.1626C19.5445 21.1354 19.6183 21.1222 19.6926 21.1235C19.7668 21.1249 19.8401 21.1409 19.9081 21.1706C19.9762 21.2003 20.0377 21.243 20.0893 21.2965C20.1408 21.35 20.1813 21.4131 20.2084 21.4822C20.2356 21.5513 20.2488 21.6251 20.2475 21.6993C20.2461 21.7736 20.2301 21.8468 20.2004 21.9149C20.1708 21.9829 20.128 22.0445 20.0745 22.096C19.5991 22.5612 19.3198 23.1907 19.294 23.8554C19.267 24.5481 19.4952 25.2267 19.9353 25.7624C20.0287 25.8787 20.0721 26.0275 20.0559 26.1758C20.0396 26.3242 19.9651 26.46 19.8488 26.5534C19.7912 26.5997 19.725 26.6342 19.654 26.6548C19.5831 26.6755 19.5088 26.6821 19.4353 26.674C19.287 26.6578 19.1511 26.5833 19.0577 26.4669C18.445 25.7105 18.1299 24.7562 18.1717 23.7836C18.2055 22.8276 18.6059 21.9212 19.2898 21.2522V21.2817ZM18.8088 43.6891C18.5691 43.6955 18.3358 43.6115 18.1554 43.4537C17.9749 43.2959 17.8605 43.0759 17.835 42.8375C17.8094 42.5991 17.8746 42.3599 18.0176 42.1674C18.1605 41.9749 18.3707 41.8434 18.6063 41.7989C18.062 38.7064 16.5727 37.0061 14.999 35.2046C13.7755 33.8039 12.5055 32.3483 11.5014 30.205C10.511 28.1611 9.99468 25.9199 9.991 23.6486C10.0412 21.1977 10.6746 18.7939 11.8389 16.6366L11.8642 16.5944C13.3379 14.0355 15.6206 12.0392 18.3531 10.9198C20.4929 10.0598 22.8085 9.72838 25.1036 9.95363C27.379 10.1601 29.5805 10.8675 31.5503 12.0252C34.0752 13.478 36.0538 15.7189 37.1827 18.4044C37.8324 19.9794 38.1926 21.6588 38.2459 23.3617C38.2889 25.3572 37.9168 27.3399 37.1532 29.184C36.0351 31.9475 34.5585 33.6646 33.1788 35.2721C31.9131 36.7487 30.7234 38.1284 30.0652 40.2379C30.2797 40.2908 30.4692 40.4165 30.6013 40.5936C30.7334 40.7707 30.7999 40.9881 30.7894 41.2088C30.779 41.4295 30.6922 41.6397 30.5439 41.8035C30.3957 41.9673 30.1951 42.0746 29.9766 42.1069L29.6559 42.1533C29.5969 42.6132 29.5589 43.1026 29.542 43.63H29.6475C29.7716 43.6128 29.8979 43.6203 30.0191 43.6519C30.1403 43.6835 30.2542 43.7387 30.3541 43.8143C30.454 43.8899 30.538 43.9845 30.6014 44.0926C30.6647 44.2006 30.7062 44.3202 30.7234 44.4443C30.7405 44.5684 30.7331 44.6946 30.7015 44.8159C30.6698 44.9371 30.6146 45.0509 30.539 45.1508C30.4634 45.2507 30.3689 45.3348 30.2608 45.3981C30.1527 45.4615 30.0332 45.5029 29.9091 45.5201L29.5842 45.5665V45.7564C29.6094 46.1117 29.6094 46.4684 29.5842 46.8238H29.6391C29.8836 46.8071 30.1253 46.8849 30.3142 47.041C30.5032 47.1972 30.6251 47.4198 30.6548 47.6631C30.6846 47.9064 30.6199 48.1519 30.4741 48.3489C30.3283 48.546 30.1125 48.6796 29.8711 48.7224L29.1623 48.8068C28.7015 50.0322 27.833 51.0616 26.7026 51.7221C25.984 52.1402 25.1781 52.3857 24.3484 52.4393C23.5157 52.4801 22.6864 52.3073 21.9393 51.9373C20.9945 51.4653 20.2192 50.7121 19.7201 49.7814C19.5805 49.7109 19.4604 49.607 19.3706 49.4789C19.2808 49.3508 19.224 49.2025 19.2054 49.0472C19.1895 48.9214 19.1995 48.7936 19.2349 48.6717C19.0597 48.1508 18.9367 47.6138 18.8679 47.0685H18.8383C18.5877 47.1032 18.3335 47.0369 18.1318 46.8842C18.0318 46.8086 17.9478 46.714 17.8845 46.6059C17.8211 46.4979 17.7796 46.3783 17.7625 46.2542C17.7453 46.1301 17.7527 46.0038 17.7844 45.8826C17.816 45.7614 17.8712 45.6476 17.9468 45.5477C18.0995 45.3459 18.3261 45.2131 18.5767 45.1784L18.8046 45.1488C18.8046 44.6299 18.8046 44.1447 18.8046 43.6848L18.8088 43.6891ZM20.3825 41.5458L28.1413 40.4446C28.8079 37.6305 30.2508 35.9429 31.8287 34.1161C33.1198 32.6141 34.4994 31.0108 35.5035 28.5216C36.1784 26.903 36.5089 25.1615 36.4739 23.4081C36.4254 21.9174 36.1066 20.4478 35.5331 19.071C34.5532 16.7469 32.8365 14.8093 30.6474 13.5567C28.9068 12.5303 26.9599 11.9034 24.9475 11.7214C22.9325 11.5227 20.8993 11.8121 19.0197 12.5652C16.6543 13.5389 14.6781 15.2688 13.4 17.4846C12.3747 19.3853 11.8151 21.5022 11.7672 23.6613C11.7722 25.6686 12.2309 27.6489 13.1089 29.454C13.9516 31.1329 15.0394 32.677 16.3364 34.0359C18.1126 36.0695 19.7918 37.9934 20.3825 41.5458ZM27.846 42.4149L20.5808 43.4444C20.5808 43.9042 20.6103 44.3894 20.5808 44.8999L27.7531 43.8831C27.7531 43.3642 27.7827 42.8748 27.8249 42.4149H27.846ZM20.6736 46.8196C20.7198 47.1794 20.7946 47.5349 20.8972 47.8828L27.8375 47.039C27.8844 46.6569 27.8929 46.271 27.8628 45.8872V45.807L20.6905 46.828L20.6736 46.8196ZM21.8845 49.6843C22.1384 49.9516 22.4367 50.1729 22.7662 50.3383C23.2466 50.5697 23.7782 50.6743 24.3104 50.642C24.8622 50.6041 25.3978 50.4395 25.8757 50.1611C26.3538 49.8815 26.7654 49.5015 27.0823 49.0472L21.8845 49.6843ZM46.6966 21.6741C46.8513 21.6578 47.0076 21.6721 47.1567 21.7163C47.3058 21.7605 47.4446 21.8337 47.5654 21.9317C47.6861 22.0297 47.7863 22.1505 47.8602 22.2873C47.9341 22.4241 47.9803 22.5742 47.9961 22.7289C48.0279 23.0416 47.9342 23.3542 47.7357 23.5979C47.5371 23.8416 47.2498 23.9964 46.9371 24.0283L43.3045 24.4123C43.1495 24.4286 42.9929 24.4139 42.8436 24.369C42.6944 24.324 42.5556 24.2498 42.4354 24.1507C42.2498 24.0035 42.1126 23.8041 42.0414 23.5782C41.9701 23.3523 41.9682 23.1102 42.0359 22.8832C42.1035 22.6562 42.2376 22.4547 42.4209 22.3046C42.6041 22.1545 42.8282 22.0628 43.064 22.0412L46.6966 21.6615V21.6741ZM39.8618 6.90748C40.0383 6.64797 40.3094 6.46779 40.617 6.40542C40.7691 6.37463 40.9258 6.37412 41.078 6.4039C41.2303 6.43368 41.3753 6.49317 41.5046 6.57897C41.6338 6.66477 41.745 6.77521 41.8316 6.90397C41.9182 7.03272 41.9786 7.17728 42.0093 7.32938C42.0398 7.48145 42.0398 7.63805 42.0094 7.79013C41.979 7.94221 41.9187 8.08675 41.8321 8.21538L39.8027 11.2531C39.7165 11.3832 39.6054 11.4949 39.4758 11.5818C39.3462 11.6687 39.2006 11.7291 39.0475 11.7594C38.7398 11.817 38.4218 11.7518 38.1615 11.578C38.0311 11.4921 37.9192 11.3811 37.8322 11.2514C37.7453 11.1217 37.6851 10.976 37.6552 10.8227C37.6246 10.6704 37.6249 10.5135 37.6561 10.3613C37.6872 10.2092 37.7486 10.0648 37.8367 9.93675L39.8618 6.89904V6.90748ZM24.1754 1.73494C24.1799 1.41674 24.3104 1.1133 24.5382 0.891132C24.7081 0.730537 24.9216 0.623732 25.152 0.584144C25.3823 0.544556 25.6193 0.573951 25.833 0.668633C26.0467 0.763315 26.2277 0.91906 26.3531 1.11629C26.4786 1.31352 26.5429 1.54343 26.5381 1.77713L26.4495 5.4266C26.455 5.58775 26.4276 5.74834 26.3689 5.89854C26.3103 6.04874 26.2216 6.18539 26.1083 6.30015C25.995 6.4149 25.8595 6.50534 25.7101 6.56593C25.5607 6.62653 25.4005 6.656 25.2393 6.65255C25.078 6.6491 24.9192 6.61281 24.7725 6.54588C24.6258 6.47895 24.4943 6.3828 24.3861 6.26331C24.2778 6.14381 24.195 6.00349 24.1429 5.85092C24.0907 5.69835 24.0702 5.53674 24.0826 5.37597L24.1754 1.72228V1.73494ZM5.90697 7.5994C5.68636 7.38304 5.55894 7.0891 5.55184 6.78019C5.54475 6.47127 5.65855 6.17179 5.869 5.94554C6.07968 5.7267 6.36705 5.59814 6.67061 5.58692C6.98234 5.57858 7.28504 5.69209 7.51442 5.90335C8.3962 6.74716 9.29907 7.56987 10.1851 8.3968C10.3013 8.50511 10.3948 8.63553 10.46 8.78043C10.5252 8.92532 10.5608 9.08177 10.5648 9.24061C10.5718 9.55211 10.4585 9.85434 10.2484 10.0844C10.032 10.305 9.73806 10.4324 9.42914 10.4395C9.12023 10.4466 8.82075 10.3328 8.59449 10.1224C7.75069 9.30811 6.8014 8.3968 5.9154 7.62472L5.90697 7.5994Z" fill="white"/>
</g>
<defs>
<clipPath id="clip0_178_293">
<rect width="48" height="51.8435" fill="white" transform="translate(0 0.578979)"/>
</clipPath>
</defs>
</svg>
