<svg width="40" height="47" viewBox="0 0 40 47" fill="none" xmlns="http://www.w3.org/2000/svg">
<path d="M8.10929 34.6341C8.45826 34.4802 8.86351 34.6378 9.01736 34.9868C9.1712 35.3358 9.0136 35.741 8.66464 35.8949C7.94794 36.21 7.20497 36.3226 6.44325 36.2476C6.06051 36.21 5.67777 36.1237 5.29128 35.9924C5.30629 36.15 5.32505 36.3076 5.34756 36.4615C5.4151 36.968 5.50516 37.4858 5.62148 38.0149C5.66276 38.1988 5.62524 38.3789 5.53518 38.5252C5.14118 39.317 4.94606 39.9812 4.90854 40.529C4.87101 41.1031 5.02486 41.5346 5.3288 41.8423C5.66276 42.1838 6.19184 42.4089 6.85976 42.5328C7.92167 42.7316 9.28002 42.6716 10.7584 42.4052C11.2875 42.3114 11.8541 42.1913 12.4432 42.0449C12.9836 41.9099 13.5239 41.7598 14.0568 41.5872C14.9123 41.3132 15.7491 40.9868 16.5183 40.6078C17.1937 40.2738 17.8091 39.9024 18.3232 39.4896C18.6196 39.2532 19.0549 39.302 19.2913 39.5984C19.5277 39.8949 19.4789 40.3301 19.1825 40.5665C18.5896 41.0393 17.8879 41.4633 17.1262 41.8423C16.3945 42.2025 15.6027 42.5215 14.7922 42.7917C14.8072 43.2494 14.7885 43.7072 14.7434 44.1688C14.6796 44.8067 14.5671 45.4333 14.402 46.0449C14.3044 46.4127 13.9254 46.6303 13.5577 46.5327C13.19 46.4352 12.9723 46.0562 13.0699 45.6885C13.2162 45.1369 13.3213 44.5853 13.3738 44.0374C13.4001 43.7635 13.4151 43.4858 13.4189 43.2082C13.2012 43.2682 12.9836 43.3245 12.7697 43.377C12.1768 43.5234 11.5802 43.651 10.9986 43.7523C9.35882 44.0449 7.83162 44.1125 6.6046 43.8798C5.67026 43.7035 4.89353 43.3545 4.34944 42.7992C3.77158 42.2138 3.47139 41.4333 3.53518 40.4352C3.58021 39.756 3.79784 38.9718 4.22561 38.0712C4.12805 37.6097 4.04925 37.1294 3.98171 36.6341C3.90666 36.0712 3.85788 35.5009 3.83912 34.923V34.9117C3.83537 34.8855 3.82786 34.8592 3.82786 34.8329C3.72655 33.7785 3.71529 32.7504 3.70028 31.711L3.69653 31.4221L2.08677 31.362H2.07176C1.644 31.3508 1.26126 31.2269 0.942309 31.0168C0.638369 30.8179 0.394466 30.544 0.233116 30.2138C0.075517 29.8986 -0.00703456 29.5309 0.000470135 29.1294C0.0117272 28.574 0.199344 27.9511 0.60835 27.3132L2.33818 23.7785C3.18621 22.0449 3.17871 21.8161 3.14118 20.9042C3.12617 20.4952 3.10366 19.9736 3.12993 19.1894C3.15995 18.2551 3.26501 17.362 3.46764 16.5252C3.61023 15.9286 3.80535 15.362 4.053 14.8292L0.901033 13.4558C0.552065 13.3057 0.394466 12.9005 0.54456 12.5515C0.567074 12.5027 0.589588 12.4615 0.619607 12.4202C8.1243 2.19129 16.6046 -0.626725 23.7716 0.78791C27.9592 1.61343 31.689 3.88735 34.5145 6.97928C37.3363 10.0637 39.2538 13.9661 39.8241 18.0524C40.7584 24.7729 38.0605 31.9699 29.7566 36.8404C29.6815 36.8817 29.6065 36.9117 29.5277 36.9267C29.5314 37.9511 29.5952 38.9418 29.7115 39.9061C29.9442 41.8085 30.3907 43.5909 31.0211 45.2645C31.1562 45.6209 30.9761 46.0149 30.6196 46.15C30.2631 46.2851 29.8691 46.105 29.7341 45.7485C29.0624 43.9661 28.5896 42.0787 28.3457 40.0712C28.1018 38.0712 28.083 35.9474 28.3157 33.681C28.3532 33.302 28.6909 33.0281 29.0699 33.0656C29.4489 33.1031 29.7228 33.4408 29.6853 33.8198C29.6327 34.3376 29.5915 34.8479 29.5652 35.3508C36.916 30.8217 39.31 24.3114 38.4658 18.2401C37.9367 14.4314 36.1431 10.7879 33.5089 7.90611C30.871 5.02431 27.4001 2.90798 23.5089 2.13875C16.9798 0.8517 9.2425 3.38828 2.24813 12.544L5.24625 13.8536C5.28752 13.8686 5.32505 13.8873 5.36632 13.9099C5.69278 14.105 5.79784 14.529 5.59897 14.8555C5.23499 15.4596 4.97608 16.1312 4.80347 16.8517C4.62336 17.5947 4.5333 18.3939 4.50328 19.2344C4.48077 19.9661 4.49953 20.4652 4.51454 20.8517C4.56332 22.0337 4.57458 22.3339 3.5727 24.3827L1.83912 27.9286C1.82411 27.9624 1.80535 27.9962 1.78659 28.0299C1.51267 28.4502 1.38509 28.8329 1.38133 29.1556C1.37758 29.3282 1.41135 29.4821 1.47139 29.6059C1.51642 29.7147 1.59522 29.8048 1.68903 29.8648C1.8016 29.9399 1.94419 29.9812 2.10929 29.9887H2.13555L4.39447 30.0712C4.75844 30.0825 5.05113 30.3789 5.05863 30.7429C5.06614 31.0506 5.06989 31.3733 5.07364 31.6922C5.0849 32.6153 5.09991 33.5346 5.17495 34.4577C5.65901 34.6866 6.12805 34.8292 6.58208 34.8742C7.10366 34.9305 7.61398 34.8517 8.10929 34.6341ZM19.978 13.8648C20.1205 13.7222 20.2932 13.6509 20.492 13.6509C20.6872 13.6509 20.8635 13.726 21.0061 13.8648L21.7828 14.6416C21.993 14.5065 22.2144 14.3864 22.4432 14.2851C22.6721 14.1763 22.9085 14.09 23.1449 14.0074V12.8142C23.1449 12.6115 23.2125 12.4427 23.3551 12.3001C23.4977 12.1575 23.6665 12.09 23.8691 12.09H25.3663C25.5539 12.09 25.7228 12.1575 25.8729 12.3001C26.0155 12.4427 26.0868 12.6115 26.0868 12.8142V13.9061C26.3344 13.9661 26.5783 14.0412 26.8147 14.1275C27.0511 14.2138 27.2725 14.3226 27.4826 14.4389L28.3457 13.5909C28.4808 13.4483 28.6421 13.3733 28.8447 13.3733C29.0399 13.3733 29.2087 13.4483 29.3588 13.5909L30.402 14.6416C30.5446 14.7842 30.6159 14.9568 30.6159 15.1556C30.6159 15.3508 30.5408 15.5271 30.402 15.6697L29.6252 16.4464C29.7603 16.6566 29.8729 16.878 29.9817 17.1069C30.0905 17.3358 30.1768 17.5721 30.2594 17.8161H31.4526C31.6553 17.8161 31.8241 17.8836 31.9667 18.0262C32.1093 18.1688 32.1768 18.3376 32.1768 18.5403V20.0374C32.1768 20.2251 32.1093 20.3939 31.9667 20.544C31.8241 20.6866 31.6553 20.7579 31.4526 20.7579H30.3607C30.3007 21.0055 30.2256 21.2494 30.1393 21.4858C30.053 21.7222 29.9442 21.9511 29.8279 22.1725L30.6759 23.0206C30.8185 23.1556 30.8898 23.317 30.8898 23.5196C30.8898 23.7147 30.8147 23.8836 30.6759 24.0337L29.6252 25.0994C29.4826 25.2344 29.31 25.302 29.1112 25.302C28.916 25.302 28.7397 25.2344 28.5971 25.0994L27.8204 24.3114C27.6102 24.4464 27.3888 24.559 27.1599 24.6678C26.9311 24.7767 26.6947 24.863 26.4583 24.9455V26.1388C26.4583 26.3414 26.3907 26.5102 26.2481 26.6528C26.1055 26.7954 25.9367 26.863 25.7341 26.863H24.2406C24.053 26.863 23.8841 26.7954 23.7341 26.6528C23.5915 26.5102 23.5202 26.3414 23.5202 26.1388V25.0468C23.2725 24.9868 23.0286 24.9117 22.7922 24.8254C22.5558 24.7391 22.3269 24.6303 22.1055 24.514L21.2575 25.362C21.1224 25.5046 20.9536 25.5797 20.7509 25.5797C20.5483 25.5797 20.3795 25.5046 20.2444 25.362L19.1787 24.3114C19.0436 24.1613 18.9761 23.9962 18.9761 23.7973C18.9761 23.6022 19.0436 23.4258 19.1787 23.2832L19.9667 22.5065C19.8316 22.2964 19.7153 22.075 19.6102 21.8461C19.5052 21.6172 19.4151 21.3808 19.3326 21.1444H18.1393C17.9367 21.1444 17.7678 21.0768 17.6252 20.9342C17.4826 20.7917 17.4151 20.6228 17.4151 20.4202V18.923C17.4151 18.7354 17.4826 18.5665 17.6252 18.4164C17.7678 18.2738 17.9367 18.2025 18.1393 18.2025H19.2312C19.2913 17.9586 19.3663 17.7222 19.4526 17.4821C19.5389 17.2382 19.6477 17.0168 19.7641 16.8029L18.916 15.9399C18.7735 15.8048 18.7022 15.6434 18.7022 15.4408C18.7022 15.2457 18.7772 15.0768 18.916 14.9267L19.9667 13.8836L19.978 13.8648ZM11.6928 21.9061C11.7866 21.8386 11.8804 21.8198 11.9892 21.8386C12.098 21.8573 12.1843 21.9136 12.2444 22.0074L12.5933 22.499C12.7209 22.4464 12.8485 22.4052 12.9836 22.3639C13.1187 22.3301 13.2538 22.3039 13.3963 22.2813L13.5127 21.6359C13.5314 21.5271 13.5877 21.4408 13.674 21.3808C13.7603 21.3207 13.8616 21.2982 13.9705 21.3132L14.781 21.4558C14.8823 21.4746 14.9686 21.5309 15.0361 21.6172C15.0962 21.7035 15.1224 21.8048 15.1037 21.9136L15.0023 22.5065C15.1299 22.559 15.2575 22.6266 15.3738 22.6941C15.4939 22.7691 15.6027 22.8442 15.7115 22.923L16.2594 22.544C16.3457 22.4765 16.4432 22.4577 16.5483 22.4765C16.6571 22.4952 16.7359 22.5515 16.8035 22.6453L17.2763 23.3132C17.3438 23.407 17.3626 23.5009 17.3438 23.6097C17.325 23.7185 17.2688 23.8048 17.175 23.8648L16.6834 24.2138C16.7359 24.3414 16.7772 24.469 16.8185 24.604C16.8523 24.7391 16.8785 24.8742 16.901 25.0168L17.5464 25.1331C17.6553 25.1519 17.7416 25.2082 17.8016 25.2945C17.8616 25.3808 17.8841 25.4821 17.8691 25.5909L17.7265 26.4014C17.7078 26.5027 17.6515 26.589 17.5652 26.6566C17.4789 26.7166 17.3776 26.7429 17.2688 26.7241L16.6759 26.6228C16.6234 26.7504 16.5558 26.878 16.4883 26.9943C16.4132 27.1144 16.3382 27.2307 16.2594 27.3395L16.6384 27.8798C16.7059 27.9661 16.7247 28.06 16.7059 28.1688C16.6871 28.2776 16.6309 28.3564 16.5371 28.4239L15.8691 28.9042C15.7753 28.9643 15.6815 28.9868 15.5727 28.9643C15.4639 28.9455 15.3776 28.8892 15.3175 28.8104L14.9686 28.3114C14.841 28.3639 14.7134 28.4052 14.5783 28.4464C14.4432 28.4802 14.3082 28.5065 14.1656 28.529L14.0493 29.1744C14.0305 29.2832 13.9742 29.3695 13.8879 29.4296C13.8016 29.4896 13.7003 29.5121 13.5915 29.4971L12.781 29.3545C12.6796 29.3358 12.5933 29.2795 12.5258 29.1932C12.4658 29.1069 12.4395 29.0055 12.4583 28.8967L12.5596 28.3039C12.432 28.2513 12.3044 28.1838 12.1881 28.1162C12.068 28.0412 11.9517 27.9661 11.8429 27.8873L11.3025 28.2663C11.2162 28.3339 11.1187 28.3526 11.0061 28.3339C10.8973 28.3151 10.811 28.2588 10.7509 28.1725L10.2706 27.5046C10.2106 27.4108 10.1881 27.317 10.2106 27.2082C10.2294 27.0994 10.2781 27.0131 10.3644 26.953L10.871 26.604C10.8185 26.4765 10.7772 26.3489 10.7359 26.2138C10.7022 26.0787 10.6759 25.9436 10.6534 25.801L10.008 25.6847C9.89916 25.666 9.81285 25.6097 9.75282 25.5234C9.69278 25.4371 9.67026 25.3358 9.68527 25.2269L9.82786 24.4164C9.84663 24.3151 9.90291 24.2288 9.98921 24.1613C10.0755 24.0937 10.1768 24.075 10.2856 24.0937L10.8785 24.195C10.9311 24.0675 10.9948 23.9474 11.0661 23.8236C11.1412 23.7035 11.2162 23.5872 11.295 23.4858L10.916 22.938C10.8485 22.8517 10.8297 22.7541 10.8485 22.6491C10.8673 22.5403 10.9235 22.4615 11.0174 22.3939L11.6853 21.9211L11.6928 21.9061ZM14.0267 23.9699C13.8316 23.9361 13.644 23.9436 13.4526 23.9849C13.265 24.0337 13.0962 24.105 12.9461 24.2063C12.796 24.3151 12.6684 24.4502 12.5633 24.6116C12.4545 24.7729 12.387 24.9568 12.3532 25.1519C12.3194 25.347 12.3269 25.5346 12.3682 25.726C12.417 25.9136 12.4883 26.0825 12.5896 26.2326C12.6984 26.3827 12.8335 26.5102 12.9948 26.6153C13.1562 26.7241 13.3401 26.7917 13.5352 26.8254C13.7303 26.8592 13.9179 26.8517 14.1093 26.8104C14.2969 26.7616 14.4658 26.6903 14.6159 26.589C14.7659 26.4802 14.8935 26.3451 14.9986 26.1838C15.1074 26.0224 15.175 25.8386 15.2087 25.6434C15.2425 25.4483 15.235 25.2607 15.1937 25.0693C15.1449 24.8817 15.0736 24.7129 14.9723 24.5628C14.8635 24.4164 14.7284 24.2851 14.5671 24.18C14.402 24.0712 14.2219 24.0037 14.0267 23.9699ZM24.7997 16.5252C24.3945 16.5252 24.0192 16.6003 23.6553 16.7541C23.2988 16.908 22.9873 17.1181 22.7172 17.3808C22.4545 17.6434 22.2444 17.9624 22.0905 18.3189C21.9367 18.6828 21.8616 19.0618 21.8616 19.4633C21.8616 19.8686 21.9367 20.2438 22.0905 20.6078C22.2444 20.9643 22.4545 21.2757 22.7172 21.5459C22.9798 21.8085 23.2988 22.0187 23.6553 22.1725C24.0117 22.3264 24.3982 22.4014 24.7997 22.4014C25.205 22.4014 25.5802 22.3264 25.9442 22.1725C26.3007 22.0187 26.6121 21.8085 26.8823 21.5459C27.1449 21.2832 27.3551 20.968 27.5089 20.6078C27.6628 20.2513 27.7378 19.8648 27.7378 19.4633C27.7378 19.0581 27.6628 18.6828 27.5089 18.3189C27.3551 17.9624 27.1449 17.6509 26.8823 17.3808C26.6196 17.1181 26.3007 16.908 25.9442 16.7541C25.5802 16.6003 25.205 16.5252 24.7997 16.5252Z" fill="white"/>
</svg>
