<svg width="34" height="49" viewBox="0 0 34 49" fill="none" xmlns="http://www.w3.org/2000/svg">
<path d="M12.3825 0.211231C12.258 0.335732 11.722 1.30223 11.1765 2.36473L10.181 4.30824H9.59697C9.27147 4.30824 8.24747 4.26023 7.30947 4.21273C5.43347 4.10723 5.10797 4.16473 4.98347 4.63373C4.95497 4.75823 4.97397 5.78223 5.03147 6.91174C5.08897 8.04123 5.13697 9.04623 5.13697 9.16123C5.13697 9.33373 4.79247 9.54424 3.15547 10.3862C2.05447 10.9412 1.08797 11.4867 1.00197 11.6017C0.676468 11.9752 0.781969 12.2432 2.07397 14.2532L3.30847 16.1962L2.96397 16.7417C0.589969 20.4362 0.589969 20.4267 1.03997 20.8382C1.16447 20.9437 2.13097 21.4797 3.20297 22.0252L5.15597 23.0207L5.09847 24.1217C5.06997 24.7247 5.01247 25.7872 4.98347 26.4857L4.91647 27.7397L5.17497 27.9982C5.43347 28.2567 5.45247 28.2567 6.48647 28.2182C7.21397 28.1897 7.51997 28.2087 7.49147 28.2757C7.47247 28.3332 5.86447 31.9322 3.93097 36.2777C1.99747 40.6137 0.417969 44.2892 0.417969 44.4327C0.417969 44.7487 0.657469 45.0452 0.972969 45.1217C1.13547 45.1602 2.08347 44.8442 4.09347 44.0782C5.68247 43.4657 6.98397 42.9772 6.99347 42.9967C7.01247 43.0157 7.50097 44.2982 8.09447 45.8492C8.74547 47.5627 9.24297 48.7397 9.36747 48.8357C9.61647 49.0557 10.0375 49.0557 10.296 48.8357C10.4015 48.7497 11.904 45.4857 13.732 41.3697C15.522 37.3497 17.0055 34.1047 17.044 34.1527C17.0725 34.2007 18.547 37.4932 20.308 41.4557C22.136 45.5717 23.6005 48.7492 23.7155 48.8357C23.955 49.0367 24.357 49.0557 24.5865 48.8737C24.8065 48.7112 24.931 48.4142 26.051 45.4662C26.568 44.1262 26.9985 43.0157 27.008 42.9967C27.0175 42.9872 28.329 43.4657 29.918 44.0782C31.9375 44.8532 32.8755 45.1597 33.0385 45.1217C33.3545 45.0452 33.5745 44.7677 33.584 44.4517C33.584 44.2792 32.349 41.3792 30.502 37.2347C26.9605 29.2712 26.482 28.1992 26.482 28.1892C26.482 28.1797 26.951 28.1987 27.5255 28.2177C28.559 28.2562 28.5785 28.2562 28.837 27.9977C29.0955 27.7392 29.0955 27.7392 29.038 26.7247C28.9995 26.1602 28.952 25.0977 28.9135 24.3607L28.856 23.0207L30.8085 22.0252C31.871 21.4797 32.8475 20.9437 32.9715 20.8382C33.3735 20.4747 33.2685 20.2162 31.938 18.1392L30.684 16.1962L31.938 14.2532C33.2205 12.2337 33.3355 11.9752 33.0195 11.6017C32.9235 11.4962 31.957 10.9412 30.866 10.3862C28.8945 9.37173 28.875 9.36223 28.875 9.05573C28.875 8.88323 28.923 7.85923 28.9805 6.79673C29.086 4.65273 29.0475 4.40374 28.6075 4.22173C28.4255 4.14523 27.861 4.14523 26.674 4.21223C25.755 4.26023 24.731 4.30774 24.4055 4.30774H23.821L22.797 2.31673C22.242 1.22573 21.6965 0.258732 21.591 0.163235C21.4765 0.0772324 21.2755 0.000732422 21.151 0.000732422C20.998 0.000732422 20.1365 0.488731 18.959 1.25473L17.006 2.50873L15.0535 1.25473C13.819 0.469734 13.005 0.000732422 12.8425 0.000732422C12.708 0.000732422 12.4975 0.0962334 12.3825 0.211231ZM15.034 3.06373C16.0295 3.69523 16.91 4.21223 17.006 4.21223C17.092 4.21223 17.973 3.69523 18.968 3.06373C19.954 2.43173 20.7865 1.91523 20.825 1.91523C20.854 1.91523 21.313 2.76723 21.8395 3.79123C22.653 5.39923 22.835 5.68623 23.084 5.78223C23.285 5.86823 23.754 5.87774 24.6635 5.83023C25.372 5.79174 26.3 5.76323 26.7215 5.75373L27.4875 5.74424L27.4015 7.85023C27.344 9.27623 27.344 10.0327 27.411 10.1762C27.478 10.3197 28.1195 10.6932 29.3925 11.3442C30.4165 11.8707 31.2685 12.3397 31.2685 12.3777C31.2685 12.4157 30.7805 13.2102 30.187 14.1487C29.5935 15.0772 29.0765 15.9197 29.0385 16.0152C28.943 16.2737 29.067 16.5227 30.216 18.2837C30.7905 19.1837 31.269 19.9587 31.269 19.9972C31.269 20.0352 30.5225 20.4567 29.6225 20.9162C28.713 21.3757 27.823 21.8637 27.641 21.9977L27.325 22.2372L27.392 24.4867L27.459 26.7362L26.951 26.6772C26.664 26.6387 25.716 26.5912 24.8355 26.5527C22.902 26.4762 22.9115 26.4667 22.3565 27.5962C22.1365 28.0267 21.7055 28.8597 21.399 29.4532L20.8245 30.5157L19.044 29.3767C17.8575 28.6107 17.178 28.2372 16.996 28.2372C16.814 28.2372 16.1535 28.6007 15.0145 29.3377C14.067 29.9407 13.2535 30.4387 13.2055 30.4387C13.1575 30.4387 12.6985 29.6157 12.1815 28.6202C11.5975 27.4717 11.1575 26.7347 11.0135 26.6387C10.803 26.5047 10.554 26.4952 8.69697 26.5907C7.55797 26.6387 6.60097 26.6577 6.57197 26.6292C6.54347 26.5907 6.55297 25.6052 6.61047 24.4277C6.68697 22.5037 6.67747 22.2837 6.53397 22.1207C6.44797 22.0252 5.55747 21.5272 4.56197 21.0102C3.55697 20.5027 2.74347 20.0437 2.74347 19.9957C2.74347 19.9572 3.24147 19.1437 3.84447 18.2057C4.64847 16.9612 4.94547 16.4157 4.94547 16.1957C4.94547 15.9757 4.64897 15.4297 3.84447 14.1857C3.24147 13.2382 2.74347 12.4342 2.74347 12.3862C2.74347 12.3382 3.59547 11.8692 4.61947 11.3427C5.88297 10.7012 6.53397 10.3187 6.60097 10.1747C6.66797 10.0217 6.66797 9.30373 6.60097 7.87774C6.55297 6.72924 6.52447 5.77174 6.54347 5.75274C6.55297 5.73373 7.48147 5.75274 8.60147 5.81023C9.78847 5.85823 10.7455 5.85823 10.8985 5.81023C11.109 5.74324 11.329 5.38923 12.143 3.81923C12.6885 2.77573 13.148 1.91423 13.1765 1.91423C13.206 1.91523 14.0385 2.43173 15.034 3.06373ZM11.1575 29.9887C11.703 31.0512 12.239 32.0177 12.3445 32.1327C12.718 32.5537 13.005 32.4487 14.9575 31.1947C16.776 30.0172 17.178 29.8067 17.0825 30.0652C16.8625 30.6202 9.98047 46.0117 9.92297 46.0692C9.88447 46.1172 9.76047 45.9257 9.65497 45.6382C8.73597 43.2072 8.07547 41.5702 7.94147 41.4267C7.85547 41.3307 7.65447 41.2542 7.47247 41.2542C7.29997 41.2542 6.15147 41.6372 4.92647 42.1157C3.70147 42.5847 2.69647 42.9582 2.67697 42.9387C2.65797 42.9292 4.09347 39.6652 5.86447 35.6927C7.63547 31.7207 9.11897 28.3797 9.16647 28.2557C9.23347 28.0737 9.31947 28.0452 9.70247 28.0452H10.162L11.1575 29.9887ZM28.042 35.4832C29.8705 39.5702 31.344 42.9302 31.3345 42.9492C31.3155 42.9587 30.3105 42.5857 29.085 42.1162C27.86 41.6377 26.711 41.2547 26.5295 41.2547C26.3095 41.2547 26.156 41.3217 26.032 41.4847C25.936 41.6092 25.4675 42.7097 25.008 43.9257C24.539 45.1507 24.1275 46.1177 24.0795 46.0697C24.041 46.0312 22.6245 42.8822 20.9305 39.0727L17.8485 32.1522L18.1165 31.5302C18.26 31.1857 18.4035 30.8887 18.4325 30.8697C18.471 30.8507 19.026 31.1762 19.677 31.5972C20.979 32.4302 21.3235 32.5162 21.668 32.1332C21.773 32.0182 22.3095 31.0517 22.855 29.9892L23.8495 28.0457H24.29H24.7305L28.042 35.4832Z" fill="white"/>
<path d="M15.6833 6.31824C13.4723 6.63424 11.4048 7.69674 9.85435 9.31424C7.88235 11.3817 6.92535 13.9472 7.07835 16.7517C7.32735 21.0682 10.2463 24.6382 14.4868 25.8157C15.3293 26.0552 15.5778 26.0837 17.0043 26.0837C18.4208 26.0837 18.6793 26.0552 19.5123 25.8252C20.6993 25.4902 21.5223 25.1167 22.5273 24.4467C25.4273 22.5132 27.1408 19.0962 26.9303 15.6502C26.6623 11.2952 23.6283 7.61024 19.4258 6.54774C18.3823 6.28924 16.6688 6.17424 15.6833 6.31824ZM19.0618 8.04074C21.3783 8.63424 23.2828 10.1367 24.4123 12.2617C27.3893 17.8617 23.3408 24.6002 17.0043 24.6002C13.2618 24.6002 10.0073 22.1592 8.90685 18.5222C8.67735 17.7467 8.64835 17.5077 8.63885 16.2252C8.63885 15.0477 8.67735 14.6557 8.84935 14.0427C9.73935 10.8072 12.4768 8.37624 15.8078 7.84974C16.6308 7.72524 18.1718 7.81124 19.0618 8.04074Z" fill="white"/>
<path d="M15.9043 10.7497C15.2823 12.0517 14.9183 12.6832 14.7078 12.8557C14.5453 12.9992 14.3728 13.1142 14.3248 13.1142C14.1718 13.1142 10.3428 13.6982 10.2378 13.7362C10.1708 13.7552 10.1133 13.8317 10.1133 13.8987C10.1133 13.9657 10.8218 14.7312 11.6928 15.6022L13.2723 17.1912V17.6317C13.2723 17.8712 13.1478 18.8187 12.9853 19.7377C12.6788 21.5182 12.6503 21.8722 12.7938 21.9677C12.8418 21.9962 13.7703 21.5657 14.8423 21.0107C15.9238 20.4557 16.8908 20.0057 17.0053 20.0057C17.1108 20.0057 18.0868 20.4557 19.1588 21.0202C20.2403 21.5752 21.1688 21.9967 21.2168 21.9677C21.3698 21.8717 21.3318 21.5272 20.9873 19.5362C20.7573 18.1962 20.6903 17.6027 20.7478 17.3827C20.8053 17.1817 21.3318 16.5882 22.3653 15.5547C23.2078 14.7122 23.8968 13.9657 23.8968 13.8987C23.8968 13.8317 23.8393 13.7552 23.7818 13.7362C23.6668 13.6977 19.8383 13.1142 19.6853 13.1142C19.6373 13.1142 19.4653 12.9992 19.2928 12.8557C19.0728 12.6642 18.7183 12.0517 18.0773 10.7497C17.3593 9.2662 17.1488 8.9022 16.9958 8.9022C16.8328 8.9022 16.6223 9.2662 15.9043 10.7497Z" fill="white"/>
</svg>
