<svg width="46" height="60" viewBox="0 0 46 60" fill="none" xmlns="http://www.w3.org/2000/svg">
<path d="M22.9727 2.93994V39.02" stroke="black" stroke-width="2" stroke-linecap="round" stroke-linejoin="round"/>
<path d="M22.9736 39.02V48.04C22.9736 49.824 22.4446 51.5679 21.4535 53.0513C20.4624 54.5346 19.0536 55.6907 17.4054 56.3734C15.7572 57.0562 13.9436 57.2348 12.1939 56.8867C10.4442 56.5387 8.83697 55.6796 7.5755 54.4182C6.31403 53.1567 5.45495 51.5495 5.10691 49.7998C4.75888 48.05 4.9375 46.2364 5.62021 44.5882C6.30292 42.94 7.45904 41.5313 8.94238 40.5402C10.4257 39.549 12.1696 39.02 13.9536 39.02H22.9736Z" stroke="black" stroke-width="2" stroke-linecap="round" stroke-linejoin="round"/>
<path d="M22.9719 39.0199H14.002C11.6062 39.0184 9.30824 38.0691 7.60994 36.3792C5.91164 34.6892 4.95095 32.396 4.93764 30.0002C4.92433 27.6044 5.85948 25.3006 7.5389 23.5919C9.21832 21.8832 11.5056 20.9084 13.9013 20.8803L22.9719 20.7795" stroke="black" stroke-width="2" stroke-linecap="round" stroke-linejoin="round"/>
<path d="M31.9944 39.0201C30.1985 39.0299 28.4401 38.5064 26.942 37.5158C25.444 36.5252 24.2738 35.1121 23.5797 33.4558C22.8856 31.7994 22.6989 29.9742 23.0433 28.2116C23.3876 26.449 24.2475 24.8283 25.5139 23.5549C26.7804 22.2815 28.3963 21.4128 30.157 21.0588C31.9177 20.7048 33.7439 20.8815 35.404 21.5665C37.0642 22.2515 38.4836 23.414 39.4824 24.9065C40.4812 26.3991 41.0144 28.1546 41.0144 29.9506C41.0162 32.3479 40.068 34.6483 38.3774 36.3482C36.6869 38.048 34.3917 39.0088 31.9944 39.0201Z" stroke="black" stroke-width="2" stroke-linecap="round" stroke-linejoin="round"/>
<path d="M13.7304 2.93996H32.2672C34.6356 2.93941 36.9076 3.87819 38.5848 5.5504C40.262 7.22262 41.2076 9.49175 41.2141 11.8602C41.2206 14.2286 40.2876 16.5029 38.6196 18.1843C36.9517 19.8657 34.6849 20.817 32.3165 20.8295L13.7798 20.9314C12.595 20.94 11.4203 20.7144 10.323 20.2678C9.22564 19.8211 8.22735 19.162 7.38543 18.3285C6.54351 17.4949 5.87453 16.5033 5.41691 15.4105C4.95929 14.3177 4.72204 13.1452 4.71878 11.9605C4.71553 10.7757 4.94633 9.60201 5.39795 8.5067C5.84956 7.4114 6.51308 6.41609 7.35041 5.57792C8.18774 4.73976 9.18239 4.07525 10.2772 3.62255C11.3721 3.16985 12.5457 2.93788 13.7304 2.93996Z" stroke="black" stroke-width="2" stroke-linecap="round" stroke-linejoin="round"/>
</svg>
