<svg width="21" height="21" viewBox="0 0 21 21" fill="none" xmlns="http://www.w3.org/2000/svg">
<path d="M18.4535 6.92361C18.445 6.29246 18.3269 5.66758 18.1043 5.07694C17.9112 4.57873 17.6164 4.12627 17.2386 3.74846C16.8608 3.37066 16.4083 3.07581 15.9101 2.88277C15.3271 2.6639 14.7111 2.54556 14.0885 2.53277C13.2868 2.49694 13.0326 2.48694 10.9976 2.48694C8.96262 2.48694 8.70178 2.48694 7.90595 2.53277C7.28358 2.54565 6.66791 2.664 6.08512 2.88277C5.58683 3.07568 5.1343 3.37048 4.75648 3.7483C4.37865 4.12612 4.08386 4.57865 3.89095 5.07694C3.67164 5.65955 3.55355 6.27536 3.54178 6.89777C3.50595 7.70027 3.49512 7.95444 3.49512 9.98944C3.49512 12.0244 3.49512 12.2844 3.54178 13.0811C3.55428 13.7044 3.67178 14.3194 3.89095 14.9036C4.08418 15.4017 4.3792 15.8541 4.75715 16.2318C5.1351 16.6094 5.58767 16.9041 6.08595 17.0969C6.66715 17.3246 7.28293 17.4514 7.90678 17.4719C8.70928 17.5078 8.96345 17.5186 10.9985 17.5186C13.0335 17.5186 13.2943 17.5186 14.0901 17.4719C14.7127 17.4597 15.3288 17.3416 15.9118 17.1228C16.4099 16.9295 16.8622 16.6346 17.24 16.2568C17.6178 15.879 17.9127 15.4267 18.106 14.9286C18.3251 14.3453 18.4426 13.7303 18.4551 13.1061C18.4909 12.3044 18.5018 12.0503 18.5018 10.0144C18.5001 7.97944 18.5001 7.72111 18.4535 6.92361ZM10.9926 13.8378C8.86428 13.8378 7.14012 12.1136 7.14012 9.98527C7.14012 7.85694 8.86428 6.13277 10.9926 6.13277C12.0144 6.13277 12.9943 6.53866 13.7167 7.26114C14.4392 7.98363 14.8451 8.96353 14.8451 9.98527C14.8451 11.007 14.4392 11.9869 13.7167 12.7094C12.9943 13.4319 12.0144 13.8378 10.9926 13.8378ZM14.9985 6.8886C14.8804 6.88871 14.7636 6.86555 14.6545 6.82045C14.5455 6.77534 14.4464 6.70917 14.363 6.62573C14.2795 6.54229 14.2134 6.44322 14.1683 6.33418C14.1232 6.22514 14.1 6.10827 14.1001 5.99027C14.1001 5.87236 14.1233 5.75559 14.1685 5.64665C14.2136 5.53771 14.2797 5.43873 14.3631 5.35535C14.4465 5.27197 14.5455 5.20583 14.6544 5.16071C14.7634 5.11558 14.8801 5.09236 14.998 5.09236C15.116 5.09236 15.2327 5.11558 15.3417 5.16071C15.4506 5.20583 15.5496 5.27197 15.633 5.35535C15.7163 5.43873 15.7825 5.53771 15.8276 5.64665C15.8727 5.75559 15.896 5.87236 15.896 5.99027C15.896 6.48694 15.4943 6.8886 14.9985 6.8886Z" fill="#CFFF8D"/>
<path d="M10.9927 12.4871C12.3748 12.4871 13.4952 11.3666 13.4952 9.98456C13.4952 8.60246 12.3748 7.48206 10.9927 7.48206C9.61064 7.48206 8.49023 8.60246 8.49023 9.98456C8.49023 11.3666 9.61064 12.4871 10.9927 12.4871Z" fill="#CFFF8D"/>
</svg>
