<svg width="60" height="60" viewBox="0 0 60 60" fill="none" xmlns="http://www.w3.org/2000/svg">
<path d="M2.8125 37.5C2.295 37.5 1.875 37.08 1.875 36.5625V6.5625C1.875 5.01187 3.13687 3.75 4.6875 3.75H55.3125C56.8631 3.75 58.125 5.01187 58.125 6.5625V9.375C58.125 9.8925 57.705 10.3125 57.1875 10.3125C56.67 10.3125 56.25 9.8925 56.25 9.375V6.5625C56.25 6.04688 55.8281 5.625 55.3125 5.625H4.6875C4.17188 5.625 3.75 6.04688 3.75 6.5625V36.5625C3.75 37.08 3.33 37.5 2.8125 37.5Z" fill="black"/>
<path d="M30 58.125H19.6875C19.17 58.125 18.75 57.705 18.75 57.1875C18.75 56.67 19.17 56.25 19.6875 56.25H21.5625C23.1131 56.25 24.375 54.9881 24.375 53.4375V48.75C24.375 48.2325 24.795 47.8125 25.3125 47.8125C25.83 47.8125 26.25 48.2325 26.25 48.75V53.4375C26.25 54.4931 25.8994 55.4662 25.3106 56.25H30C30.5175 56.25 30.9375 56.67 30.9375 57.1875C30.9375 57.705 30.5175 58.125 30 58.125Z" fill="black"/>
<path d="M29.0625 48.75H4.6875C3.13687 48.75 1.875 47.4881 1.875 45.9375V40.3125C1.875 39.795 2.295 39.375 2.8125 39.375H29.0625C29.58 39.375 30 39.795 30 40.3125C30 40.83 29.58 41.25 29.0625 41.25H3.75V45.9375C3.75 46.4531 4.17188 46.875 4.6875 46.875H29.0625C29.58 46.875 30 47.295 30 47.8125C30 48.33 29.58 48.75 29.0625 48.75Z" fill="black"/>
<path d="M40.3125 16.875H49.6875C50.205 16.875 50.625 16.455 50.625 15.9375C50.625 15.42 50.205 15 49.6875 15H40.3125C39.795 15 39.375 15.42 39.375 15.9375C39.375 16.455 39.795 16.875 40.3125 16.875Z" fill="black"/>
<path d="M44.0625 54.375H45.9375C46.455 54.375 46.875 53.955 46.875 53.4375C46.875 52.92 46.455 52.5 45.9375 52.5H44.0625C43.545 52.5 43.125 52.92 43.125 53.4375C43.125 53.955 43.545 54.375 44.0625 54.375Z" fill="black"/>
<path d="M53.4375 58.125H36.5625C33.9769 58.125 31.875 56.0231 31.875 53.4375V15.9375C31.875 13.3519 33.9769 11.25 36.5625 11.25H53.4375C56.0231 11.25 58.125 13.3519 58.125 15.9375V53.4375C58.125 56.0231 56.0231 58.125 53.4375 58.125ZM36.5625 13.125C35.0119 13.125 33.75 14.3869 33.75 15.9375V53.4375C33.75 54.9881 35.0119 56.25 36.5625 56.25H53.4375C54.9881 56.25 56.25 54.9881 56.25 53.4375V15.9375C56.25 14.3869 54.9881 13.125 53.4375 13.125H36.5625Z" fill="black"/>
</svg>
