<svg width="61" height="60" viewBox="0 0 61 60" fill="none" xmlns="http://www.w3.org/2000/svg">
<g clip-path="url(#clip0_163_32)">
<path d="M59.0652 34.8084C59.0652 33.8718 58.8424 32.9705 58.4145 32.1558C59.8247 31.0801 60.668 29.4092 60.668 27.5956C60.668 24.4272 58.0903 21.8497 54.922 21.8497H39.364C40.7039 18.4231 41.4341 14.2644 41.4341 9.96463C41.4341 7.23814 39.216 5.02002 36.4895 5.02002C33.763 5.02002 31.545 7.23814 31.545 9.96463C31.545 19.7101 24.7467 27.0024 14.6284 28.1104C14.559 28.118 14.4926 28.1335 14.4292 28.1549C13.7639 27.5541 12.883 27.1874 11.918 27.1874H4.41797C2.3502 27.1874 0.667969 28.8697 0.667969 30.9374V48.7499C0.667969 50.8177 2.3502 52.4999 4.41797 52.4999H11.918C13.0621 52.4999 14.0875 51.9843 14.7759 51.174C17.1751 51.524 18.7303 52.2912 20.2331 53.0351C22.1648 53.9912 24.1624 54.9799 27.6741 54.9799H50.1136C53.282 54.9799 55.8595 52.4022 55.8595 49.2339C55.8595 48.2975 55.6368 47.3961 55.2088 46.5814C56.619 45.5056 57.4623 43.8347 57.4623 42.0212C57.4623 41.0847 57.2395 40.1833 56.8116 39.3686C58.2218 38.2928 59.0652 36.6219 59.0652 34.8084ZM55.2259 38.1711H53.6367C53.119 38.1711 52.6992 38.5908 52.6992 39.1086C52.6992 39.6263 53.119 40.0461 53.6367 40.0461H55.038C55.3968 40.6437 55.5873 41.3172 55.5873 42.0212C55.5873 43.4398 54.8186 44.7277 53.576 45.4101H51.8712C51.3534 45.4101 50.9337 45.8299 50.9337 46.3476C50.9337 46.8653 51.3534 47.2851 51.8712 47.2851H53.451C53.7994 47.8762 53.9845 48.5402 53.9845 49.2338C53.9845 51.3683 52.248 53.1047 50.1136 53.1047H27.6741C24.6011 53.1047 22.9623 52.2937 21.0649 51.3546C19.6167 50.6377 17.9905 49.8357 15.6087 49.4099C15.6469 49.1955 15.668 48.9752 15.668 48.7499V34.5703C15.668 34.0525 15.2482 33.6328 14.7305 33.6328C14.2127 33.6328 13.793 34.0525 13.793 34.5703V48.7499C13.793 49.7838 12.9518 50.6249 11.918 50.6249H4.41797C3.38414 50.6249 2.54297 49.7838 2.54297 48.7499V30.9374C2.54297 29.9036 3.38414 29.0624 4.41797 29.0624H11.918C12.9518 29.0624 13.793 29.9036 13.793 30.9374C13.793 31.4552 14.2127 31.8749 14.7305 31.8749C15.2482 31.8749 15.668 31.4552 15.668 30.9374C15.668 30.5736 15.6149 30.222 15.5177 29.889C20.7652 29.1734 25.2229 26.9212 28.4416 23.3484C31.652 19.7849 33.4199 15.0319 33.4199 9.96463C33.4199 8.27209 34.7968 6.89502 36.4894 6.89502C38.1819 6.89502 39.559 8.27197 39.559 9.96463C39.559 14.5707 38.6843 18.9838 37.0959 22.3912C36.8771 22.8604 37.0802 23.4182 37.5496 23.637C37.7024 23.7083 37.8645 23.734 38.0212 23.7213C38.0448 23.723 38.0682 23.7249 38.0921 23.7249H54.9218C57.0563 23.7249 58.7927 25.4614 58.7927 27.5958C58.7927 28.9784 58.0629 30.2371 56.8757 30.9321H55.1208C54.603 30.9321 54.1833 31.3518 54.1833 31.8696C54.1833 32.3873 54.603 32.8071 55.1208 32.8071H56.6249C56.9939 33.4112 57.19 34.0942 57.19 34.8085C57.1902 36.2091 56.4407 37.4821 55.2259 38.1711Z" fill="black"/>
<path d="M50.167 38.1711H49.168C48.6502 38.1711 48.2305 38.5909 48.2305 39.1086C48.2305 39.6264 48.6502 40.0461 49.168 40.0461H50.167C50.6847 40.0461 51.1045 39.6264 51.1045 39.1086C51.1045 38.5909 50.6847 38.1711 50.167 38.1711Z" fill="black"/>
<path d="M51.8701 30.9319H50.8711C50.3534 30.9319 49.9336 31.3517 49.9336 31.8694C49.9336 32.3871 50.3534 32.8069 50.8711 32.8069H51.8701C52.3879 32.8069 52.8076 32.3871 52.8076 31.8694C52.8076 31.3517 52.3879 30.9319 51.8701 30.9319Z" fill="black"/>
<path d="M48.46 45.4102H47.4609C46.9432 45.4102 46.5234 45.8299 46.5234 46.3477C46.5234 46.8654 46.9432 47.2852 47.4609 47.2852H48.46C48.9777 47.2852 49.3975 46.8654 49.3975 46.3477C49.3975 45.8299 48.9778 45.4102 48.46 45.4102Z" fill="black"/>
<path d="M10.043 30.9375C9.00914 30.9375 8.16797 31.7787 8.16797 32.8125C8.16797 33.8463 9.00914 34.6875 10.043 34.6875C11.0768 34.6875 11.918 33.8463 11.918 32.8125C11.918 31.7787 11.0768 30.9375 10.043 30.9375Z" fill="black"/>
</g>
<defs>
<clipPath id="clip0_163_32">
<rect width="60" height="60" fill="white" transform="translate(0.667969)"/>
</clipPath>
</defs>
</svg>
