<svg width="21" height="21" viewBox="0 0 21 21" fill="none" xmlns="http://www.w3.org/2000/svg">
<path d="M17.3592 6.6662C17.37 6.81203 17.37 6.95703 17.37 7.10203C17.37 11.5395 13.9925 16.6529 7.82004 16.6529C5.91837 16.6529 4.15171 16.102 2.66504 15.1454C2.93504 15.1762 3.19504 15.187 3.47587 15.187C4.9867 15.1907 6.45474 14.6855 7.64337 13.7529C6.94289 13.7402 6.26385 13.5091 5.70107 13.0918C5.13829 12.6745 4.71986 12.0919 4.50421 11.4254C4.71171 11.4562 4.92004 11.477 5.13837 11.477C5.43921 11.477 5.74171 11.4354 6.02254 11.3629C5.26234 11.2094 4.57877 10.7973 4.08805 10.1968C3.59734 9.59621 3.32978 8.84424 3.33087 8.0687V8.02703C3.77837 8.2762 4.29754 8.43203 4.84754 8.45286C4.38678 8.14668 4.00897 7.73122 3.74782 7.24352C3.48667 6.75583 3.3503 6.21108 3.35087 5.65786C3.35087 5.03453 3.51671 4.46286 3.80754 3.96453C4.65099 5.00205 5.70296 5.85083 6.89532 6.45591C8.08768 7.06099 9.39384 7.40888 10.7292 7.47703C10.6775 7.22703 10.6459 6.96786 10.6459 6.70786C10.6457 6.267 10.7323 5.83041 10.9009 5.42306C11.0695 5.01571 11.3168 4.64559 11.6285 4.33385C11.9403 4.02211 12.3104 3.77487 12.7177 3.60626C13.1251 3.43765 13.5617 3.35098 14.0025 3.3512C14.9692 3.3512 15.8417 3.7562 16.455 4.4112C17.2065 4.26588 17.9272 3.99155 18.585 3.60036C18.3345 4.37604 17.8098 5.03378 17.1092 5.45036C17.7757 5.37435 18.4271 5.19907 19.0417 4.93036C18.5826 5.59961 18.0138 6.18648 17.3592 6.6662Z" fill="#CFFF8D"/>
</svg>
